<?xml version="1.0" encoding="utf-8"?>
<!-- Generator: Adobe Illustrator 24.0.1, SVG Export Plug-In . SVG Version: 6.00 Build 0)  -->
<svg version="1.1" id="Layer_1" xmlns="http://www.w3.org/2000/svg" xmlns:xlink="http://www.w3.org/1999/xlink" x="0px" y="0px"
	 viewBox="0 0 250 199.3" style="enable-background:new 0 0 250 199.3;" xml:space="preserve">
<style type="text/css">
	.st0{fill:#1C1C1C;}
	.st1{fill:#3D3D3D;}
	.st2{fill:#232323;}
	.st3{fill:#FFF19C;}
	.st4{fill:#70B2DD;}
	.st5{fill:#ABDAF7;}
	.st6{fill:#CAE9F9;}
	.st7{fill:#4E8FB7;}
	.st8{fill:#404347;}
	.st9{fill:#525559;}
	.st10{fill:#707377;}
	.st11{fill:#FFFFFF;}
	.st12{fill:url(#SVGID_1_);}
	.st13{fill:url(#SVGID_2_);}
	.st14{fill:#90C6E0;}
	.st15{fill:none;stroke:#90C6E0;stroke-miterlimit:10;}
	.st16{clip-path:url(#SVGID_4_);}
	.st17{fill:#9EB2EF;}
	.st18{fill:#1B3151;}
	.st19{fill:#23406D;}
	.st20{fill:url(#SVGID_5_);}
	.st21{fill:#FEB19E;}
	.st22{fill:#3150BC;}
	.st23{fill:url(#SVGID_6_);}
	.st24{opacity:0.3;fill:#3150BC;enable-background:new    ;}
</style>
<title>hero</title>
<g>
	<g id="Layer_2_1_">
		<g id="OBJECTS">
			<path class="st0" d="M236.5,102.7c-0.2,1.6-0.4,3.3-0.8,4.9c-0.1,0.3-0.1,0.7-0.2,1c-1.5,5.5-4.2,10.7-7.7,15.2l-0.6,0.8
				c-24.9,30.9-93.3,44.7-148.7,21.6l-1.5-0.6c-4.7-2-9.2-4.3-13.6-6.8C41.9,126.5,28,109.8,20.8,92.2l0,0c-0.4-0.9-0.7-1.8-1-2.7
				C8.6,59.1,17,26.7,41.2,10.4c0.3-0.2,0.6-0.4,0.9-0.6c6.4-4.1,13.6-7,21.1-8.5c1.8-0.4,3.6-0.7,5.3-0.9c0.3,0,0.7-0.1,1-0.1
				c25.7-2.6,44.8,13,60.4,29.5l0.7,0.7c5.3,5.6,10.2,11.4,14.8,16.5l0.7,0.8c10.6,11.7,19.8,19.9,29.1,16
				C209.3,49.8,241,58.5,236.5,102.7z"/>
			<path class="st0" d="M175.1,19.2c-11.6-15.7-29,1.3-18.6,16.7S203.3,57.2,175.1,19.2z"/>
			<path class="st1" d="M235.6,107.6c-0.1,0.3-0.1,0.7-0.2,1c-22.1-7.3-60.2-11.8-123,1.8c-39.3,8.5-69.1,3.4-88.6-15.2
				c-1-1-2-2-2.9-3l0,0c-0.4-0.9-0.7-1.8-1-2.7c1.5,1.7,3,3.4,4.6,4.9c19.2,18.3,48.7,23.4,87.7,15
				C175.1,95.8,213.4,100.2,235.6,107.6z"/>
			<path class="st1" d="M227.6,123.7l-0.6,0.8c-21.2-10.3-52.8-15.8-94.7,2.8c-17.4,7.9-35.5,14.2-54,18.9l-1.5-0.6
				c18.9-4.7,37.4-11.1,55.2-19.1C174.3,107.6,206.2,113.3,227.6,123.7z"/>
			<path class="st1" d="M146,47.8c-8.6,8.5-20.8,15.5-37.8,18.1c-3.2,0.5-6.4,0.7-9.6,0.8c-11,0.1-21.6-3.4-30.3-10.2
				c-14.9-11.6-23-31.1-27.2-46.1c0.3-0.2,0.6-0.4,0.9-0.6C46.2,24.7,54.2,44.1,69,55.7c10.9,8.5,24,11.6,39.1,9.2
				c16.8-2.6,28.8-9.5,37.3-17.9L146,47.8z"/>
			<path class="st1" d="M130.6,30.6c-6.6,9.3-16.3,17-30.2,17.3h-0.6C93.6,48,87.7,45.5,83.4,41c-9.1-9.2-13.2-26.2-15-40.6
				c0.3,0,0.7-0.1,1-0.1c1.8,14.2,5.7,31,14.7,40c4.2,4.4,10.1,6.8,16.2,6.7c13.6-0.3,23.1-8,29.5-17.1L130.6,30.6z"/>
			<ellipse class="st0" cx="125" cy="190.4" rx="125" ry="5.4"/>
			<ellipse class="st2" cx="41.2" cy="189.4" rx="20.1" ry="2"/>
			<ellipse class="st2" cx="122.4" cy="190.6" rx="70.9" ry="2.9"/>
			<path class="st2" d="M233,190.4c0,1-9.6,1.8-21.4,1.8s-21.4-0.8-21.4-1.8s9.6-1.8,21.4-1.8S233,189.3,233,190.4z"/>
			<path class="st3" d="M150,58.7c0,0,1.6,2-6.1,1.3s-9.7,0.1-12,3.8s-6.9,5.2-9.1,2.6s-0.4,0-0.4,0L135,88.2c0,0,12.9,4.1,13.8-3.6
				s2.8-9.7,5.1-11.2c1.4-0.9,2.5-2.2,3.2-3.7C157,69.8,156.7,62.2,150,58.7z"/>
			<path class="st4" d="M160.3,57.6l1.2-0.6c1-0.5,2.3-0.2,2.9,0.8l0,0c0.6,0.9,0.3,2.2-0.7,2.7c0,0,0,0,0,0l-0.9,0.5L160.3,57.6z"
				/>
			<path class="st5" d="M150,58.7l4-2c2.8-1.4,6.3-0.4,8,2.2l0,0c1.8,2.8,1.1,6.4-1.6,8.3l-3.9,2.9L150,58.7z"/>
			<path class="st6" d="M156.6,70.1c-0.8,0.5-3-1.7-4.8-4.8s-2.6-6.1-1.8-6.6s2.6,1.3,4.3,3.9c0.2,0.3,0.4,0.6,0.6,0.9
				s0.5,0.9,0.7,1.3C156.8,67.5,157.3,69.7,156.6,70.1z"/>
			<path class="st4" d="M155.5,64.9c-0.3,0.3-0.7,0.5-1.1,0.5c-0.8,0-1.4-0.6-1.4-1.3c0-0.7,0.5-1.4,1.2-1.4
				c0.2,0.3,0.4,0.6,0.6,0.9S155.3,64.4,155.5,64.9z"/>
			<path class="st7" d="M169,97.8h-1.4c0,0,0.1-1.9,0-4.8v-0.3c-0.1-3.1-0.2-10.4,6.6-13.9c2.5-1.3,4.3-4.4,4.7-8.4
				c0.5-4.7-1-9.2-3.6-11.3c-5.1-4-10.6-0.7-10.6-0.7l-0.7-1.2c0.1,0,6.4-3.8,12.3,0.8c3,2.4,4.6,7.4,4.1,12.5
				c-0.5,4.5-2.4,8-5.4,9.5c-6,3.1-5.9,9.5-5.8,12.7V93C169,95.8,169,97.8,169,97.8z"/>
			<path class="st7" d="M176.8,103.6l-7.6-5.6c-0.6-0.5-1.5-0.5-2.1,0l-8,5.6L176.8,103.6z"/>
			<path class="st8" d="M69.7,73.8l-6.8,26.3c-0.4,1.5,0.5,3.1,2,3.5c0.2,0.1,0.5,0.1,0.7,0.1h18.5L69.7,73.8z"/>
			<path class="st9" d="M77.8,101.3L69,71.2c-0.5-1.7,0.5-3.5,2.2-4c0.3-0.1,0.6-0.1,0.8-0.1h46.4c1.4,0,2.7,1,3.1,2.3l8.5,30.1
				c0.5,1.7-0.5,3.5-2.2,4c-0.3,0.1-0.6,0.1-0.9,0.1h-46C79.5,103.6,78.2,102.7,77.8,101.3z"/>
			<path class="st10" d="M80.7,101.3l-8.8-30.1c-0.5-1.7,0.5-3.5,2.2-4c0.3-0.1,0.6-0.1,0.9-0.1h46.4c1.4,0,2.7,1,3.1,2.3l8.5,30.1
				c0.5,1.7-0.5,3.5-2.2,4c-0.3,0.1-0.6,0.1-0.8,0.1h-46C82.4,103.7,81.1,102.7,80.7,101.3z"/>
			<path class="st11" d="M128.9,99.6H89.2c-1,0-1.9-0.7-2.2-1.6l-5.3-18.2L80,74c-0.4-1.2,0.3-2.4,1.5-2.8c0.2-0.1,0.4-0.1,0.6-0.1
				h40c1,0,1.9,0.7,2.2,1.6l6.8,24c0.4,1.2-0.3,2.4-1.5,2.8C129.4,99.6,129.1,99.6,128.9,99.6z"/>
			
				<linearGradient id="SVGID_1_" gradientUnits="userSpaceOnUse" x1="79.9065" y1="120.1837" x2="119.0765" y2="120.1837" gradientTransform="matrix(1 0 0 -1 0 202)">
				<stop  offset="0" style="stop-color:#F79239"/>
				<stop  offset="1" style="stop-color:#F7C759"/>
			</linearGradient>
			<path class="st12" d="M119,86.4V90c0,0-5.1-2.5-12.7,0.8S92.5,92.9,88,83.7c-1.1-2.5-3.7-4.1-6.4-3.9L80,74
				c-0.4-1.2,0.3-2.4,1.5-2.8c0.2-0.1,0.4-0.1,0.6-0.1h9.3c1.4,1.3,2.5,2.9,3.3,4.6c4.3,8.9,5.8,11.3,13.1,10.1S119,86.4,119,86.4z"
				/>
			
				<linearGradient id="SVGID_2_" gradientUnits="userSpaceOnUse" x1="98.55" y1="128.289" x2="107.33" y2="128.289" gradientTransform="matrix(1 0 0 -1 0 202)">
				<stop  offset="0" style="stop-color:#F79239"/>
				<stop  offset="1" style="stop-color:#F7C759"/>
			</linearGradient>
			<path class="st13" d="M107.3,71.9c0,2.4-2,4.4-4.4,4.4s-4.4-2-4.4-4.4c0,0,0,0,0,0c0-0.3,0-0.5,0.1-0.8h8.6
				C107.3,71.4,107.3,71.6,107.3,71.9z"/>
			<path class="st9" d="M79.4,79.6h-2.9c-0.2,0-0.5-0.2-0.5-0.4L75.6,78c-0.1-0.3,0.1-0.6,0.4-0.7c0.1,0,0.1,0,0.2,0H79
				c0.2,0,0.5,0.2,0.5,0.4l0.4,1.2c0.1,0.3,0,0.6-0.3,0.7C79.6,79.6,79.5,79.6,79.4,79.6z"/>
			<path class="st9" d="M80.6,84.5h-2.9c-0.2,0-0.5-0.2-0.5-0.4l-0.4-1.3c-0.1-0.3,0.1-0.6,0.4-0.7c0.1,0,0.1,0,0.2,0h2.8
				c0.2,0,0.5,0.2,0.5,0.4l0.4,1.2c0.1,0.3-0.1,0.6-0.4,0.7C80.7,84.5,80.7,84.5,80.6,84.5z"/>
			<path class="st9" d="M81.9,89.4H79c-0.2,0-0.4-0.2-0.5-0.4l-0.4-1.2c-0.1-0.3,0.1-0.6,0.4-0.7c0.1,0,0.1,0,0.2,0h2.9
				c0.2,0,0.5,0.2,0.5,0.4l0.4,1.3c0.1,0.3-0.1,0.6-0.4,0.7C82,89.4,81.9,89.4,81.9,89.4z"/>
			<path class="st14" d="M52.5,191.4c-0.6,0-1-0.4-1-1s0.4-1,1-1c2.1,0,3.9-1.6,4-3.7l4.7-70.4c0-0.6,0.5-1,1.1-0.9
				c0.6,0,1,0.5,0.9,1.1l-4.7,70.4C58.3,188.9,55.7,191.4,52.5,191.4z"/>
			<path class="st14" d="M78.3,191.4c0.6,0,1-0.4,1-1s-0.4-1-1-1c-2.1,0-3.9-1.6-4-3.7l-4.7-70.4c0-0.6-0.5-1-1.1-0.9
				c-0.6,0-1,0.5-0.9,1.1l4.7,70.4C72.5,188.9,75.2,191.4,78.3,191.4z"/>
			<path class="st14" d="M160,191.4c-0.6,0-1-0.4-1-1s0.4-1,1-1c2.1,0,3.9-1.6,4-3.7l4.7-70.4c0-0.6,0.5-1,1.1-0.9
				c0.6,0,1,0.5,0.9,1.1l-4.7,70.4C165.8,188.9,163.2,191.4,160,191.4z"/>
			<path class="st14" d="M185.8,191.4c0.6,0,1-0.4,1-1s-0.4-1-1-1c-2.1,0-3.9-1.6-4-3.7l-4.7-70.4c0-0.6-0.5-1-1.1-0.9
				c-0.6,0-1,0.5-0.9,1.1l4.7,70.4C180,188.9,182.7,191.4,185.8,191.4z"/>
			<rect x="49" y="103.6" class="st5" width="138.6" height="3.1"/>
			<rect x="79.4" y="103.6" class="st4" width="108.2" height="3.1"/>
			<path class="st4" d="M184.9,106.7v3.7c0,4.7-3.8,8.4-8.4,8.4H60.9c-4.7,0-8.4-3.8-8.4-8.4l0,0v-3.7H184.9z"/>
			<path class="st7" d="M184.9,106.7v3.7c0.1,4.5-3.4,8.3-7.9,8.4H77.8v-12.1H184.9z"/>
			<path class="st15" d="M23.4,162.8l4.2,25.6c0.2,1.1,1.2,1.9,2.3,1.9h14.7c1.2,0,2.1-0.9,2.3-2l3.8-25.6c0.2-1.3-0.7-2.4-2-2.6
				c-0.1,0-0.2,0-0.3,0H25.7c-1.3,0-2.3,1-2.3,2.3C23.4,162.6,23.4,162.7,23.4,162.8z"/>
			<g>
				<defs>
					<path id="SVGID_3_" d="M50.7,162.8l-0.4,2.9L47,187.4l-0.2,1c-0.2,1.1-1.1,2-2.3,2H29.9c-1.1,0-2.1-0.9-2.3-2l-0.2-1l-3.6-21.7
						l-0.5-2.8c-0.2-1.3,0.6-2.5,1.9-2.7c0.1,0,0.3,0,0.4,0h22.7c1.3,0,2.3,1,2.3,2.3C50.7,162.6,50.7,162.7,50.7,162.8z"/>
				</defs>
				<clipPath id="SVGID_4_">
					<use xlink:href="#SVGID_3_"  style="overflow:visible;"/>
				</clipPath>
				<g class="st16">
					
						<rect x="5.7" y="159.8" transform="matrix(0.7071 -0.7071 0.7071 0.7071 -106.2656 64.1359)" class="st14" width="37.1" height="1"/>
					
						<rect x="8.6" y="162.7" transform="matrix(0.7071 -0.7071 0.7071 0.7071 -107.4316 66.9739)" class="st14" width="37.1" height="1"/>
					
						<rect x="11.4" y="165.5" transform="matrix(0.7071 -0.7071 0.7071 0.7071 -108.6075 69.802)" class="st14" width="37.1" height="1"/>
					
						<rect x="14.2" y="168.3" transform="matrix(0.7071 -0.7071 0.7071 0.7071 -109.7847 72.6329)" class="st14" width="37.1" height="1"/>
					
						<rect x="17.1" y="171.1" transform="matrix(0.7071 -0.7071 0.7071 0.7071 -110.9507 75.471)" class="st14" width="37.1" height="1"/>
					
						<rect x="19.9" y="174" transform="matrix(0.7071 -0.7071 0.7071 0.7071 -112.1267 78.299)" class="st14" width="37.1" height="1"/>
					
						<rect x="22.7" y="176.8" transform="matrix(0.7071 -0.7071 0.7071 0.7071 -113.3068 81.137)" class="st14" width="37.1" height="1"/>
					
						<rect x="25.6" y="179.7" transform="matrix(0.7071 -0.7071 0.7071 0.7071 -114.4771 83.9715)" class="st14" width="37.1" height="1"/>
					
						<rect x="28.4" y="182.5" transform="matrix(0.7071 -0.7071 0.7071 0.7071 -115.6558 86.806)" class="st14" width="37.1" height="1"/>
					
						<rect x="31.3" y="185.3" transform="matrix(0.7071 -0.7071 0.7071 0.7071 -116.8232 89.6476)" class="st14" width="37.1" height="1"/>
					
						<rect x="49.3" y="141.8" transform="matrix(0.7071 -0.7071 0.7071 0.7071 -98.7906 82.1714)" class="st14" width="1" height="37.1"/>
					
						<rect x="46.5" y="144.6" transform="matrix(0.7071 -0.7071 0.7071 0.7071 -101.6216 81.0025)" class="st14" width="1" height="37.1"/>
					
						<rect x="43.6" y="147.4" transform="matrix(0.7071 -0.7071 0.7071 0.7071 -104.4525 79.8195)" class="st14" width="1" height="37.1"/>
					
						<rect x="40.8" y="150.3" transform="matrix(0.7071 -0.7071 0.7071 0.7071 -107.2877 78.6464)" class="st14" width="1" height="37.1"/>
					
						<rect x="37.9" y="153.1" transform="matrix(0.7071 -0.7071 0.7071 0.7071 -110.1222 77.4761)" class="st14" width="1" height="37.1"/>
					
						<rect x="35.1" y="155.9" transform="matrix(0.7071 -0.7071 0.7071 0.7071 -112.9566 76.2974)" class="st14" width="1" height="37.1"/>
					
						<rect x="32.3" y="158.8" transform="matrix(0.7071 -0.7071 0.7071 0.7071 -115.7912 75.1329)" class="st14" width="1" height="37.1"/>
					
						<rect x="29.4" y="161.6" transform="matrix(0.7071 -0.7071 0.7071 0.7071 -118.6221 73.9499)" class="st14" width="1" height="37.1"/>
					
						<rect x="26.6" y="164.4" transform="matrix(0.7071 -0.7071 0.7071 0.7071 -121.4502 72.7881)" class="st14" width="1" height="37.1"/>
					
						<rect x="23.8" y="167.3" transform="matrix(0.7071 -0.7071 0.7071 0.7071 -124.2982 71.6038)" class="st14" width="1" height="37.1"/>
				</g>
			</g>
			<path class="st14" d="M50.7,162.8l-0.4,2.9H23.9l-0.5-2.8c-0.2-1.3,0.6-2.5,1.9-2.7c0.1,0,0.3,0,0.4,0h22.7c1.3,0,2.3,1,2.3,2.3
				C50.7,162.6,50.7,162.7,50.7,162.8z"/>
			<path class="st14" d="M47,187.4l-0.2,1c-0.2,1.1-1.1,2-2.3,2H29.9c-1.1,0-2.1-0.9-2.3-2l-0.2-1H47z"/>
			<path class="st5" d="M219.5,118.8l-8.6,12.3l-1.4,2.1l-7.8-15.3c0.1-8.1,3.1-16,8.5-22.1c8.7-9.5,7.4-16.5,7.3-17.1
				C218,79.5,227.3,95.6,219.5,118.8z"/>
			<path class="st14" d="M219.5,118.8l-8.6,12.3c-0.2-2.6,0.6-8.3,5.6-20.8c6.3-15.8,2.9-27.2,1-31.6
				C218,79.5,227.3,95.6,219.5,118.8z"/>
			<path class="st14" d="M214.3,135.2l-1.3,9h-12.3c0,0-9.2-6-6.3-20.8c2.8-14.4-0.8-20.5-1-20.7h0.1
				C209.7,109.1,213.8,134.7,214.3,135.2z"/>
			<path class="st4" d="M214.3,135.2l-1.3,9c0,0-4.4,0-7-18.5c-2.4-17.3-11.4-22.4-12.6-23C209.7,109.1,213.8,134.7,214.3,135.2z"/>
			<path class="st14" d="M224.9,144.2c0,0,0,3.3-0.3,8.6c-0.5,9-1.9,23.8-5.5,37.5h-18c-3.6-13.8-5-28.5-5.5-37.5
				c-0.3-5.3-0.3-8.6-0.3-8.6H224.9z"/>
			<path class="st4" d="M224.9,144.2c0,0,0,3.3-0.3,8.6h-29c-0.3-5.3-0.3-8.6-0.3-8.6H224.9z"/>
			<path class="st4" d="M238.8,119.4L238.8,119.4h-0.2c-1,0.2-5.5,1-9.1,1.3h-0.1c-1.4,0.1-2.8-0.1-4.1-0.6
				c-3.5,8.9,0.1,16.4-4.7,24h-12c0,0-4.3-22.3,8.9-27.9c1-0.5,2.1-0.8,3.1-1C234,113.4,235.6,119.4,238.8,119.4L238.8,119.4z"/>
			<path class="st14" d="M238.7,119.4L238.7,119.4h-0.2c-3,0.8-6,1.2-9.1,1.3h-0.1c-4.4,0-8.7-2.2-11.9-4.5c1-0.5,2-0.9,3.1-1
				C234,113.4,235.6,119.4,238.7,119.4z"/>
			<path class="st17" d="M143,190.4c0,0-2.6-9.4-0.5-12l11-0.4c0,0,1.6,2.8,1.7,12.4L143,190.4z"/>
			<polygon class="st18" points="131.2,138.5 139.6,178.3 156,178.3 150,135.2 			"/>
			<path class="st17" d="M114.4,179.7c1.1,3.5,1.3,7.1,0.7,10.7H92.8c-1.2,0-0.5-2.2,1.5-3.9c2.9-2.4,7.8-4.8,8.1-6.8H114.4z"/>
			<path class="st19" d="M115,137.2l0.9,42.5h-15.3c0,0-5.5-38.5-4.5-48.1s15.3-16.3,15.3-16.3l14.2,13.4L115,137.2L115,137.2z"/>
			<path class="st18" d="M115.9,179.7h-13.5c-0.8-6.2-3.1-25.9-1.4-34.6c2-10.4,12.5-9.9,12.5-9.9l1.5,2L115.9,179.7z"/>
			
				<linearGradient id="SVGID_5_" gradientUnits="userSpaceOnUse" x1="119.6918" y1="143.5766" x2="115.0318" y2="168.4166" gradientTransform="matrix(1 0 0 -1 0 202)">
				<stop  offset="0" style="stop-color:#3F2323"/>
				<stop  offset="1" style="stop-color:#5E3434"/>
			</linearGradient>
			<path class="st20" d="M129.2,57.3c1.1-0.9,1.4-2.4,0.7-3.6c0,0,2.2-6,1-10.6s-4-3.8-4-3.8s0.6-3.3-3.4-5.5s-11.3,0.2-14.5,2
				s-4.1-1.8-5.2-1.2s-1.1,4.3,2.3,6.1c0,0-3.4-2.2-3.7-0.6s0.6,6.6,6.7,9.1l6.3,12.8l10.6-1.2C126,60.8,130.2,61.4,129.2,57.3z"/>
			<path class="st21" d="M108.2,45.6c0,0,0.2,20.9,7.6,17.4l1.5,2.4l12.7-2.3l-0.7-5.9c0,0-1.9,2.3-7.6,2.2c-5.1-0.1-5-4.6-5-4.6
				s3.1-0.7,1.6-4.3s-4.6-2-3.4,2.8c0,0-3.2-1.2-2.4-6.1C112.3,47.3,109.5,47.1,108.2,45.6z"/>
			<path class="st22" d="M135.8,64c0,0,6.1-0.8,11.6,6.3s15.5,26.8,1.7,26.4S135.8,64,135.8,64z"/>
			<path class="st17" d="M117,67.1l0.2-2c0.1-1.6,1.3-2.9,2.8-3.3c3.1-0.7,6.2-1.1,9.3-1.1c1.5,0,2.9,0.9,3.4,2.3l0.8,2.2L117,67.1z
				"/>
			
				<linearGradient id="SVGID_6_" gradientUnits="userSpaceOnUse" x1="124.355" y1="85.4485" x2="111.695" y2="128.4485" gradientTransform="matrix(1 0 0 -1 0 202)">
				<stop  offset="0" style="stop-color:#3855E1"/>
				<stop  offset="1" style="stop-color:#5C7EF7"/>
			</linearGradient>
			<path class="st23" d="M153.3,105.7c0,0-7.5,16.3-21.1,21.2s-20.7-11.5-20.7-11.5l4.5-3.6l-1-6.9l-0.9-5.7l-0.4-2.8l-0.1,0.2
				c-1.5,2.6-3.4,5-5.4,7.1c-2.8,2.8-6.3,5.1-9.7,4c-3.2-1-6.3-4.3-8.9-7.8c-2.3-3.2-4.3-6.5-6.1-10c-2.2-1.1-4.4-6-3.9-8.9
				s3.7-3.8,3.7-3.8l3.5,2.4c0,0,2-1.6,3.1,0.4s0.5,6.3,0.5,6.3l3.9,2.2l4.7,2.6c0,0,2.2-11.2,7.3-18.4s11.6-7.5,17.2-8.2
				c17-2,18.4-0.1,23.7,11.5l0.1,0.3C152.5,88.2,153.3,105.7,153.3,105.7z"/>
			<path class="st24" d="M153.3,105.7c0,0-7.5,16.3-21.1,21.2s-20.7-11.5-20.7-11.5l4.5-3.6l-1-6.9c2.9-3.1,8.4-7.6,18.6-12.3
				s13-11.3,13.5-16.5l0.1,0.3C152.5,88.2,153.3,105.7,153.3,105.7z"/>
			<path class="st24" d="M113.5,96.5c-1.5,2.6-3.4,5-5.4,7.1c-3.3-9.9,2.2-24.3,2.2-24.3L113.5,96.5z"/>
			<path class="st21" d="M89.4,99.9c-2.3-3.2-4.3-6.5-6.1-10c-2.2-1.1-4.4-6-3.9-8.9s3.7-3.8,3.7-3.8l3.5,2.4c0,0,2-1.6,3.1,0.4
				s0.5,6.3,0.5,6.3l3.9,2.2C92,90.8,88.8,95.2,89.4,99.9z"/>
			<path class="st9" d="M86.7,79.7l-6.3-10.2c-0.2-0.4-0.7-0.5-1.1-0.3c0,0,0,0,0,0l0,0c-0.4,0.3-0.5,0.8-0.2,1.2c0,0,0,0,0,0
				l6.7,10.3C85.7,80.6,86.6,80.4,86.7,79.7z"/>
			<path class="st17" d="M94.2,88.5c0,0-4.4,2.9-5,12c0,0,1.9,4.3,2.8,4.6s3.1-11.3,6.6-14.1L94.2,88.5z"/>
			<polygon class="st7" points="106.1,138.7 97.8,190.4 102,190.4 111.8,138.8 			"/>
			<polygon class="st14" points="113.5,138.7 119.5,190.4 123.3,190.4 118.4,138.7 			"/>
			<polygon class="st14" points="147.7,138.7 156,190.4 151.9,190.4 142,138.8 			"/>
			<polygon class="st7" points="140.3,138.7 134.3,190.4 130.5,190.4 135.4,138.7 			"/>
			<path class="st5" d="M105.5,140.6c0,0,1-4.9,3.3-5.6s8.7-0.5,10.4-2.9s10.5-30.6,14.8-33.7s31.6-1.6,31.6-1.6l-10.4,37.4
				c-1.1,4.1-4.8,7-9.1,7L105.5,140.6z"/>
		</g>
	</g>
</g>
</svg>
